# xmcd CD database file
#
# Track frame offsets:
#	150
#	33997
#	60764
#	82070
#	107761
#	119336
#	144443
#	189200
#	208958
#
# Disc length: 3322 seconds
#
# Revision: 1
# Processed by: cddbd v1.4PL0 Copyright (c) Steve Scherf et al.
# Submitted via: CDex 1.50
#
DISCID=760cf809
DTITLE=Brenda Hopkins Miranda - Bohemia
DYEAR=1999
DGENRE=Jazz
TTITLE0=Smokey Joe
TTITLE1=Wepa
TTITLE2=Campanitas de Cristal
TTITLE3=Brinquito
TTITLE4=Pica Pica
TTITLE5=Distancia
TTITLE6=Panico
TTITLE7=Salsa Brown
TTITLE8=Miranda
EXTD=YEAR: 1999
EXTT0=
EXTT1=
EXTT2=
EXTT3=
EXTT4=
EXTT5=
EXTT6=
EXTT7=
EXTT8=
PLAYORDER=
